<svg width="554.6281616210937px" height="100.95880126953125px" xmlns="http://www.w3.org/2000/svg" viewBox="-27.31408081054684 24.520599365234375 554.6281616210937 100.95880126953125" style="background: rgba(0, 0, 0, 0);" preserveAspectRatio="xMidYMid"><defs><linearGradient id="editing-gradient-gradient" x1="0.010926199633097156" x2="0.9890738003669028" y1="0.39604415459112036" y2="0.6039558454088797" gradientUnits="objectBoundingBox"><stop offset="0" stop-color="#f0f"></stop><stop offset="1" stop-color="#8a80b1"></stop></linearGradient></defs><g><g transform="translate(53.43498706817627, 104.76115798950195)"><path d="M33.91-27.13L33.91-6.16L33.91-6.16Q33.91-4.88 33.42-3.75L33.42-3.75L33.42-3.75Q32.94-2.63 32.11-1.80L32.11-1.80L32.11-1.80Q31.28-0.97 30.17-0.48L30.17-0.48L30.17-0.48Q29.06 0 27.78 0L27.78 0L11.25 0L11.25 0Q10 0 8.88-0.48L8.88-0.48L8.88-0.48Q7.75-0.97 6.92-1.80L6.92-1.80L6.92-1.80Q6.09-2.63 5.61-3.75L5.61-3.75L5.61-3.75Q5.13-4.88 5.13-6.16L5.13-6.16L5.13-27.13L5.13-27.13Q5.13-28.41 5.61-29.53L5.61-29.53L5.61-29.53Q6.09-30.66 6.92-31.48L6.92-31.48L6.92-31.48Q7.75-32.31 8.88-32.80L8.88-32.80L8.88-32.80Q10-33.28 11.25-33.28L11.25-33.28L27.78-33.28L27.78-33.28Q29.06-33.28 30.17-32.80L30.17-32.80L30.17-32.80Q31.28-32.31 32.11-31.48L32.11-31.48L32.11-31.48Q32.94-30.66 33.42-29.53L33.42-29.53L33.42-29.53Q33.91-28.41 33.91-27.13L33.91-27.13ZM27.78-27.13L11.25-27.13L11.25-6.16L27.78-6.16L27.78-27.13ZM73.59-27.13L73.59-6.16L73.59-6.16Q73.59-4.88 73.11-3.75L73.11-3.75L73.11-3.75Q72.63-2.63 71.80-1.80L71.80-1.80L71.80-1.80Q70.97-0.97 69.84-0.48L69.84-0.48L69.84-0.48Q68.72 0 67.44 0L67.44 0L50.28 0L50.28 0Q49.03 0 47.91-0.48L47.91-0.48L47.91-0.48Q46.78-0.97 45.95-1.80L45.95-1.80L45.95-1.80Q45.13-2.63 44.64-3.75L44.64-3.75L44.64-3.75Q44.16-4.88 44.16-6.16L44.16-6.16L44.16-46.09L50.28-46.09L50.28-27.41L50.28-27.41Q50.34-28.63 50.84-29.70L50.84-29.70L50.84-29.70Q51.34-30.78 52.17-31.58L52.17-31.58L52.17-31.58Q53-32.38 54.09-32.83L54.09-32.83L54.09-32.83Q55.19-33.28 56.44-33.28L56.44-33.28L67.44-33.28L67.44-33.28Q68.72-33.28 69.84-32.80L69.84-32.80L69.84-32.80Q70.97-32.31 71.80-31.48L71.80-31.48L71.80-31.48Q72.63-30.66 73.11-29.53L73.11-29.53L73.11-29.53Q73.59-28.41 73.59-27.13L73.59-27.13ZM67.44-27.13L50.28-27.13L50.28-6.16L67.44-6.16L67.44-27.13ZM112-27.13L112-13.50L89.97-13.50L89.97-6.16L112-6.16L112 0L89.97 0L89.97 0Q88.72 0 87.59-0.48L87.59-0.48L87.59-0.48Q86.47-0.97 85.64-1.80L85.64-1.80L85.64-1.80Q84.81-2.63 84.33-3.75L84.33-3.75L84.33-3.75Q83.84-4.88 83.84-6.16L83.84-6.16L83.84-27.13L83.84-27.13Q83.84-28.41 84.33-29.53L84.33-29.53L84.33-29.53Q84.81-30.66 85.64-31.48L85.64-31.48L85.64-31.48Q86.47-32.31 87.59-32.80L87.59-32.80L87.59-32.80Q88.72-33.28 89.97-33.28L89.97-33.28L105.84-33.28L105.84-33.28Q107.13-33.28 108.25-32.80L108.25-32.80L108.25-32.80Q109.38-32.31 110.20-31.48L110.20-31.48L110.20-31.48Q111.03-30.66 111.52-29.53L111.52-29.53L111.52-29.53Q112-28.41 112-27.13L112-27.13ZM105.84-27.13L89.97-27.13L89.97-19.66L105.84-19.66L105.84-27.13ZM121.59-6.16L142.34-6.16L142.34-13.88L127.75-13.88L127.75-13.88Q126.47-13.88 125.34-14.36L125.34-14.36L125.34-14.36Q124.22-14.84 123.39-15.67L123.39-15.67L123.39-15.67Q122.56-16.50 122.08-17.63L122.08-17.63L122.08-17.63Q121.59-18.75 121.59-20.03L121.59-20.03L121.59-27.13L121.59-27.13Q121.59-28.41 122.08-29.53L122.08-29.53L122.08-29.53Q122.56-30.66 123.39-31.48L123.39-31.48L123.39-31.48Q124.22-32.31 125.34-32.80L125.34-32.80L125.34-32.80Q126.47-33.28 127.75-33.28L127.75-33.28L147.22-33.28L147.22-27.13L127.75-27.13L127.75-20.03L142.34-20.03L142.34-20.03Q143.63-20.03 144.73-19.55L144.73-19.55L144.73-19.55Q145.84-19.06 146.69-18.23L146.69-18.23L146.69-18.23Q147.53-17.41 148.02-16.28L148.02-16.28L148.02-16.28Q148.50-15.16 148.50-13.88L148.50-13.88L148.50-6.16L148.50-6.16Q148.50-4.88 148.02-3.75L148.02-3.75L148.02-3.75Q147.53-2.63 146.69-1.80L146.69-1.80L146.69-1.80Q145.84-0.97 144.73-0.48L144.73-0.48L144.73-0.48Q143.63 0 142.34 0L142.34 0L121.59 0L121.59-6.16ZM186.25-27.13L186.25-13.50L164.22-13.50L164.22-6.16L186.25-6.16L186.25 0L164.22 0L164.22 0Q162.97 0 161.84-0.48L161.84-0.48L161.84-0.48Q160.72-0.97 159.89-1.80L159.89-1.80L159.89-1.80Q159.06-2.63 158.58-3.75L158.58-3.75L158.58-3.75Q158.09-4.88 158.09-6.16L158.09-6.16L158.09-27.13L158.09-27.13Q158.09-28.41 158.58-29.53L158.58-29.53L158.58-29.53Q159.06-30.66 159.89-31.48L159.89-31.48L159.89-31.48Q160.72-32.31 161.84-32.80L161.84-32.80L161.84-32.80Q162.97-33.28 164.22-33.28L164.22-33.28L180.09-33.28L180.09-33.28Q181.38-33.28 182.50-32.80L182.50-32.80L182.50-32.80Q183.63-32.31 184.45-31.48L184.45-31.48L184.45-31.48Q185.28-30.66 185.77-29.53L185.77-29.53L185.77-29.53Q186.25-28.41 186.25-27.13L186.25-27.13ZM180.09-27.13L164.22-27.13L164.22-19.66L180.09-19.66L180.09-27.13ZM196.50-6.16L196.50-27.13L196.50-27.13Q196.50-28.41 196.98-29.53L196.98-29.53L196.98-29.53Q197.47-30.66 198.30-31.48L198.30-31.48L198.30-31.48Q199.13-32.31 200.25-32.80L200.25-32.80L200.25-32.80Q201.38-33.28 202.63-33.28L202.63-33.28L219.78-33.28L219.78-46.09L225.94-46.09L225.94 0L219.78 0L219.78-5.63L219.78-5.63Q219.69-4.47 219.16-3.44L219.16-3.44L219.16-3.44Q218.63-2.41 217.80-1.64L217.80-1.64L217.80-1.64Q216.97-0.88 215.91-0.44L215.91-0.44L215.91-0.44Q214.84 0 213.66 0L213.66 0L202.63 0L202.63 0Q201.38 0 200.25-0.48L200.25-0.48L200.25-0.48Q199.13-0.97 198.30-1.80L198.30-1.80L198.30-1.80Q197.47-2.63 196.98-3.75L196.98-3.75L196.98-3.75Q196.50-4.88 196.50-6.16L196.50-6.16ZM202.63-27.13L202.63-6.16L219.78-6.16L219.78-27.13L202.63-27.13ZM236.50-33.28L242.66-33.28L242.66 0L236.50 0L236.50-33.28ZM236.19-39.69L236.19-46.09L242.97-46.09L242.97-39.69L236.19-39.69ZM253.22-7.44L253.22-27.13L253.22-27.13Q253.22-28.41 253.70-29.53L253.70-29.53L253.70-29.53Q254.19-30.66 255.02-31.48L255.02-31.48L255.02-31.48Q255.84-32.31 256.97-32.80L256.97-32.80L256.97-32.80Q258.09-33.28 259.34-33.28L259.34-33.28L270.38-33.28L270.38-33.28Q271.59-33.28 272.69-32.83L272.69-32.83L272.69-32.83Q273.78-32.38 274.61-31.58L274.61-31.58L274.61-31.58Q275.44-30.78 275.95-29.70L275.95-29.70L275.95-29.70Q276.47-28.63 276.50-27.41L276.50-27.41L276.50-33.28L282.66-33.28L282.66 7.28L282.66 7.28Q282.66 8.56 282.17 9.69L282.17 9.69L282.17 9.69Q281.69 10.81 280.86 11.64L280.86 11.64L280.86 11.64Q280.03 12.47 278.91 12.95L278.91 12.95L278.91 12.95Q277.78 13.44 276.50 13.44L276.50 13.44L257.06 13.44L257.06 7.28L276.50 7.28L276.50-1.28L259.34-1.28L259.34-1.28Q258.09-1.28 256.97-1.77L256.97-1.77L256.97-1.77Q255.84-2.25 255.02-3.08L255.02-3.08L255.02-3.08Q254.19-3.91 253.70-5.03L253.70-5.03L253.70-5.03Q253.22-6.16 253.22-7.44L253.22-7.44ZM259.34-7.44L276.50-7.44L276.50-27.13L259.34-27.13L259.34-7.44ZM293.22-33.28L299.38-33.28L299.38 0L293.22 0L293.22-33.28ZM292.91-39.69L292.91-46.09L299.69-46.09L299.69-39.69L292.91-39.69ZM308-27.13L308-33.28L316.13-33.28L316.13-43.53L322.28-43.53L322.28-33.28L333.22-33.28L333.22-27.13L322.28-27.13L322.28-6.16L333.22-6.16L333.22 0L322.28 0L322.28 0Q321.03 0 319.91-0.48L319.91-0.48L319.91-0.48Q318.78-0.97 317.94-1.80L317.94-1.80L317.94-1.80Q317.09-2.63 316.61-3.75L316.61-3.75L316.61-3.75Q316.13-4.88 316.13-6.16L316.13-6.16L316.13-27.13L308-27.13ZM343.47-6.16L343.47-14.53L343.47-14.53Q343.47-15.81 343.95-16.92L343.95-16.92L343.95-16.92Q344.44-18.03 345.27-18.88L345.27-18.88L345.27-18.88Q346.09-19.72 347.22-20.20L347.22-20.20L347.22-20.20Q348.34-20.69 349.59-20.69L349.59-20.69L365.47-20.69L365.47-27.13L345.38-27.13L345.38-33.28L365.47-33.28L365.47-33.28Q366.75-33.28 367.88-32.80L367.88-32.80L367.88-32.80Q369-32.31 369.83-31.48L369.83-31.48L369.83-31.48Q370.66-30.66 371.14-29.53L371.14-29.53L371.14-29.53Q371.63-28.41 371.63-27.13L371.63-27.13L371.63 0L365.47 0L365.47-5.63L365.47-5.63Q365.38-4.47 364.84-3.44L364.84-3.44L364.84-3.44Q364.31-2.41 363.48-1.64L363.48-1.64L363.48-1.64Q362.66-0.88 361.59-0.44L361.59-0.44L361.59-0.44Q360.53 0 359.34 0L359.34 0L349.59 0L349.59 0Q348.34 0 347.22-0.48L347.22-0.48L347.22-0.48Q346.09-0.97 345.27-1.80L345.27-1.80L345.27-1.80Q344.44-2.63 343.95-3.75L343.95-3.75L343.95-3.75Q343.47-4.88 343.47-6.16L343.47-6.16ZM349.59-14.53L349.59-6.16L365.47-6.16L365.47-14.53L349.59-14.53ZM381.88-46.09L388-46.09L388 0L381.88 0L381.88-46.09Z" fill="url(#editing-gradient-gradient)"></path></g></g><style>text {
  font-size: 64px;
  font-family: Arial Black;
  dominant-baseline: central;
  text-anchor: middle;
}</style></svg>